<?xml version="1.0" encoding="iso-8859-1"?>
<!-- Generator: Adobe Illustrator 19.0.0, SVG Export Plug-In . SVG Version: 6.00 Build 0)  -->
<svg version="1.1" id="Layer_1" xmlns="http://www.w3.org/2000/svg" xmlns:xlink="http://www.w3.org/1999/xlink" x="0px" y="0px"
	 viewBox="0 0 469.333 469.333" style="enable-background:new 0 0 469.333 469.333;" xml:space="preserve">
<g>
	<g>
		<g>
			<path d="M426.667,0h-384C19.135,0,0,19.135,0,42.667v384c0,23.531,19.135,42.667,42.667,42.667h384
				c23.531,0,42.667-19.135,42.667-42.667v-384C469.333,19.135,450.198,0,426.667,0z M448,426.667
				c0,11.76-9.573,21.333-21.333,21.333h-384c-11.76,0-21.333-9.573-21.333-21.333v-384c0-11.76,9.573-21.333,21.333-21.333h384
				c11.76,0,21.333,9.573,21.333,21.333V426.667z"/>
			<path d="M266.667,170.667h-21.333v-96c0-5.896-4.771-10.667-10.667-10.667S224,68.771,224,74.667v96h-21.333
				c-5.896,0-10.667,4.771-10.667,10.667V224c0,5.896,4.771,10.667,10.667,10.667H224v32c0,5.896,4.771,10.667,10.667,10.667
				s10.667-4.771,10.667-10.667v-32h21.333c5.896,0,10.667-4.771,10.667-10.667v-42.667
				C277.333,175.437,272.562,170.667,266.667,170.667z M256,213.333h-42.667V192H256V213.333z"/>
			<path d="M394.667,149.333h-21.333V74.667c0-5.896-4.771-10.667-10.667-10.667C356.771,64,352,68.771,352,74.667v74.667h-21.333
				c-5.896,0-10.667,4.771-10.667,10.667v42.667c0,5.896,4.771,10.667,10.667,10.667H352v53.333c0,5.896,4.771,10.667,10.667,10.667
				c5.896,0,10.667-4.771,10.667-10.667v-53.333h21.333c5.896,0,10.667-4.771,10.667-10.667V160
				C405.333,154.104,400.563,149.333,394.667,149.333z M384,192h-42.667v-21.333H384V192z"/>
			<path d="M138.667,106.667h-21.333v-32c0-5.896-4.771-10.667-10.667-10.667S96,68.771,96,74.667v32H74.667
				c-5.896,0-10.667,4.771-10.667,10.667V160c0,5.896,4.771,10.667,10.667,10.667H96v96c0,5.896,4.771,10.667,10.667,10.667
				s10.667-4.771,10.667-10.667v-96h21.333c5.896,0,10.667-4.771,10.667-10.667v-42.667
				C149.333,111.437,144.562,106.667,138.667,106.667z M128,149.333H85.333V128H128V149.333z"/>
			<path d="M234.667,320C211.135,320,192,339.135,192,362.667s19.135,42.667,42.667,42.667s42.667-19.135,42.667-42.667
				S258.198,320,234.667,320z M234.667,384c-11.76,0-21.333-9.573-21.333-21.333c0-11.76,9.573-21.333,21.333-21.333
				S256,350.906,256,362.667C256,374.427,246.427,384,234.667,384z"/>
			<path d="M106.667,320C83.135,320,64,339.135,64,362.667s19.135,42.667,42.667,42.667s42.667-19.135,42.667-42.667
				S130.198,320,106.667,320z M106.667,384c-11.76,0-21.333-9.573-21.333-21.333c0-11.76,9.573-21.333,21.333-21.333
				S128,350.906,128,362.667C128,374.427,118.427,384,106.667,384z"/>
			<path d="M362.667,320C339.135,320,320,339.135,320,362.667s19.135,42.667,42.667,42.667s42.667-19.135,42.667-42.667
				S386.198,320,362.667,320z M362.667,384c-11.76,0-21.333-9.573-21.333-21.333c0-11.76,9.573-21.333,21.333-21.333
				c11.76,0,21.333,9.573,21.333,21.333C384,374.427,374.427,384,362.667,384z"/>
		</g>
	</g>
</g>
<g>
</g>
<g>
</g>
<g>
</g>
<g>
</g>
<g>
</g>
<g>
</g>
<g>
</g>
<g>
</g>
<g>
</g>
<g>
</g>
<g>
</g>
<g>
</g>
<g>
</g>
<g>
</g>
<g>
</g>
</svg>
