<svg width="48" height="48" viewBox="0 0 48 48" fill="none" xmlns="http://www.w3.org/2000/svg">
<path d="M44.9057 3.94806C43.9794 3.02582 42.7853 2.41995 41.494 2.21701C40.2027 2.01407 38.8803 2.22444 37.7157 2.81806C37.6497 2.72406 37.0337 2.04406 36.7917 1.80006C35.6384 0.649466 34.0758 0.0032959 32.4467 0.0032959C30.8176 0.0032959 29.255 0.649466 28.1017 1.80006L17.1617 12.7401C16.7868 13.1151 16.5762 13.6237 16.5762 14.1541C16.5762 14.6844 16.7868 15.193 17.1617 15.5681C17.5398 15.9372 18.0473 16.1439 18.5757 16.1439C19.1042 16.1439 19.6117 15.9372 19.9897 15.5681L30.9297 4.62806C31.3322 4.22588 31.8778 3.99996 32.4467 3.99996C33.0157 3.99996 33.5613 4.22588 33.9637 4.62806L34.6957 5.36206L30.2457 9.81006C30.0516 10.005 29.9425 10.2689 29.9425 10.5441C29.9425 10.8192 30.0516 11.0831 30.2457 11.2781L37.5777 18.6001C37.772 18.794 38.0353 18.9029 38.3097 18.9029C38.5842 18.9029 38.8475 18.794 39.0417 18.6001L44.9057 12.7361C46.0701 11.5702 46.7242 9.98981 46.7242 8.34206C46.7242 6.69431 46.0701 5.11393 44.9057 3.94806Z" fill="white"/>
<path d="M28.0455 13.476C27.8509 13.282 27.5873 13.173 27.3125 13.173C27.0377 13.173 26.7741 13.282 26.5795 13.476L10.1255 29.934C9.83622 30.2227 9.6067 30.5656 9.4501 30.9431C9.2935 31.3206 9.21289 31.7253 9.21289 32.134C9.21289 32.5427 9.2935 32.9474 9.4501 33.3249C9.6067 33.7024 9.83622 34.0453 10.1255 34.334L14.5255 38.734C14.8142 39.0233 15.1571 39.2528 15.5346 39.4094C15.9121 39.566 16.3168 39.6467 16.7255 39.6467C17.1342 39.6467 17.5389 39.566 17.9164 39.4094C18.2939 39.2528 18.6368 39.0233 18.9255 38.734L35.3815 22.278C35.5756 22.0834 35.6846 21.8198 35.6846 21.545C35.6846 21.2702 35.5756 21.0066 35.3815 20.812L28.0455 13.476Z" fill="white"/>
<path d="M6.86761 35.522C6.74867 35.4029 6.60157 35.3157 6.43995 35.2685C6.27833 35.2214 6.10741 35.2158 5.94306 35.2523C5.7787 35.2888 5.62622 35.3662 5.49976 35.4773C5.37329 35.5885 5.27693 35.7297 5.21961 35.888L1.32961 46.66C1.26533 46.8386 1.25319 47.0318 1.29463 47.217C1.33607 47.4023 1.42936 47.5719 1.56361 47.706C1.69917 47.8388 1.86901 47.9312 2.0541 47.9728C2.23919 48.0145 2.43223 48.0039 2.61161 47.942L13.3836 44.054C13.5419 43.9967 13.6832 43.9004 13.7943 43.7739C13.9054 43.6474 13.9829 43.4949 14.0194 43.3306C14.0559 43.1662 14.0503 42.9953 14.0031 42.8337C13.956 42.6721 13.8688 42.525 13.7496 42.406L6.86761 35.522Z" fill="white"/>
</svg>
