<svg width="48" height="48" viewBox="0 0 48 48" fill="none" xmlns="http://www.w3.org/2000/svg">
<path d="M35.9996 37.25C33.5074 37.2528 31.1175 38.2414 29.3516 40C29.2802 40.07 29.2314 40.1599 29.2118 40.258C29.1922 40.3561 29.2026 40.4579 29.2416 40.55C30.0716 42.5116 30.4994 44.62 30.4996 46.75C30.4996 46.908 30.4996 47.066 30.4836 47.222C30.4798 47.29 30.4899 47.358 30.5133 47.422C30.5367 47.4859 30.573 47.5444 30.6198 47.5938C30.6666 47.6432 30.723 47.6826 30.7856 47.7094C30.8481 47.7363 30.9155 47.7501 30.9836 47.75H44.4996C44.7648 47.75 45.0192 47.6446 45.2067 47.4571C45.3943 47.2696 45.4996 47.0152 45.4996 46.75C45.4964 44.2314 44.4945 41.8169 42.7136 40.036C40.9327 38.2551 38.5182 37.2532 35.9996 37.25Z" fill="#CC338B"/>
<path d="M19.2197 31.46C21.2697 30.2845 22.8222 28.4035 23.5877 26.1678C24.3532 23.9321 24.2794 21.4942 23.3801 19.3089C22.4808 17.1236 20.8173 15.3399 18.6999 14.2906C16.5825 13.2412 14.1558 12.9978 11.8722 13.6057C9.58853 14.2136 7.60396 15.6313 6.28851 17.5945C4.97306 19.5576 4.41653 21.9322 4.72271 24.2755C5.02889 26.6187 6.17687 28.7706 7.95259 30.3298C9.7283 31.8891 12.0105 32.7493 14.3737 32.75C16.0718 32.7346 17.7386 32.2909 19.2197 31.46V31.46ZM8.93766 19.86C10.5515 21.1026 12.4292 21.9576 14.4259 22.3592C16.4227 22.7607 18.485 22.6981 20.4537 22.176C20.4657 22.326 20.4997 22.468 20.4997 22.62C20.4707 24.2253 19.8126 25.755 18.6671 26.88C17.5216 28.005 15.9802 28.6353 14.3747 28.6353C12.7691 28.6353 11.2277 28.005 10.0822 26.88C8.93673 25.755 8.27867 24.2253 8.24966 22.62C8.25657 21.6604 8.49244 20.7162 8.93766 19.866V19.86Z" fill="#CC338B"/>
<path d="M27.5 46.75C27.5 43.1696 26.0777 39.7358 23.5459 37.2041C21.0142 34.6723 17.5804 33.25 14 33.25C10.4196 33.25 6.9858 34.6723 4.45406 37.2041C1.92232 39.7358 0.5 43.1696 0.5 46.75C0.5 47.0152 0.605357 47.2696 0.792893 47.4571C0.98043 47.6446 1.23478 47.75 1.5 47.75H26.5C26.7652 47.75 27.0196 47.6446 27.2071 47.4571C27.3946 47.2696 27.5 47.0152 27.5 46.75ZM12.5 38.728C12.5 38.3302 12.658 37.9486 12.9393 37.6673C13.2206 37.386 13.6022 37.228 14 37.228C14.3978 37.228 14.7794 37.386 15.0607 37.6673C15.342 37.9486 15.5 38.3302 15.5 38.728V41.636C15.5 42.0338 15.342 42.4154 15.0607 42.6967C14.7794 42.978 14.3978 43.136 14 43.136C13.6022 43.136 13.2206 42.978 12.9393 42.6967C12.658 42.4154 12.5 42.0338 12.5 41.636V38.728Z" fill="#CC338B"/>
<path d="M35.9996 36.432C39.6038 36.432 42.5256 33.5102 42.5256 29.906C42.5256 26.3018 39.6038 23.38 35.9996 23.38C32.3954 23.38 29.4736 26.3018 29.4736 29.906C29.4736 33.5102 32.3954 36.432 35.9996 36.432Z" fill="#CC338B"/>
</svg>
