<svg width="30" height="30" viewBox="0 0 30 30" fill="none" xmlns="http://www.w3.org/2000/svg">
<g clip-path="url(#clip0)">
<path d="M0.0946586 2.75197L2.09542 6.25309C2.16291 6.3714 2.27587 6.45699 2.40796 6.49012L4.27457 6.95677L10.6766 13.3588L11.384 12.6517L4.88175 6.1496C4.81776 6.0854 4.73752 6.03993 4.64966 6.01791L2.85609 5.56793L1.15265 2.58531L2.6131 1.12486L5.59696 2.82995L6.04715 4.62351C6.06896 4.71158 6.11463 4.79203 6.17862 4.85602L12.6809 11.3583L13.3881 10.6509L6.98601 4.24883L6.51935 2.38325C6.48623 2.25095 6.40063 2.13779 6.28233 2.0701L2.78099 0.0695408C2.58573 -0.0415668 2.34006 -0.00864598 2.18081 0.149991L0.180253 2.15075C0.0193523 2.30898 -0.0156261 2.55506 0.0946586 2.75197Z" fill="black" stroke="black" stroke-width="0.999036"/>
<path d="M20.8897 9.85751L9.8861 20.8613L9.17871 20.1539L20.1825 9.15033L20.8897 9.85751Z" fill="black" stroke="black" stroke-width="0.999036"/>
<path d="M7.96036 21.2506C7.86983 21.1 7.70728 21.008 7.53157 21.008H4.53063C4.35513 21.008 4.19237 21.1 4.10205 21.2506L2.60148 23.7513C2.50621 23.9097 2.50621 24.1079 2.60148 24.2665L4.10205 26.7673C4.19237 26.9177 4.35513 27.0098 4.53063 27.0098H7.53157C7.70728 27.0098 7.86983 26.9177 7.96036 26.7673L9.46072 24.2665C9.55599 24.1079 9.55599 23.9097 9.46072 23.7513L7.96036 21.2506ZM7.24865 26.0095H4.81375L3.61338 24.0089L4.81375 22.0082H7.24865L8.44903 24.0089L7.24865 26.0095Z" fill="black" stroke="black" stroke-width="0.999036"/>
<path d="M24.0369 12.005C27.3403 12.0161 30.0275 9.34704 30.0386 6.04364C30.0403 5.54078 29.9785 5.03997 29.8549 4.55253C29.7882 4.28444 29.5168 4.12127 29.2487 4.18794C29.1607 4.20995 29.0804 4.25542 29.0162 4.31941L25.9027 7.43084L23.4324 6.60762L22.6086 4.13794L25.7221 1.02383C25.9173 0.828366 25.9171 0.511709 25.7217 0.316448C25.6573 0.252046 25.5762 0.206369 25.4875 0.184558C22.2839 -0.626734 19.0295 1.31251 18.2182 4.51591C18.0949 5.0019 18.0334 5.50148 18.0351 6.0029C18.0363 6.39672 18.0768 6.7893 18.1567 7.17488L7.2029 18.1285C6.81732 18.0488 6.42474 18.0083 6.03113 18.0069C2.71621 18.0069 0.0290527 20.694 0.0290527 24.0089C0.0290527 27.3237 2.71621 30.0108 6.03113 30.0108C9.34584 30.0108 12.033 27.3237 12.033 24.0089C12.0318 23.6151 11.991 23.2226 11.9114 22.837L14.5337 20.2146L15.6806 21.3615C15.8761 21.5568 16.1925 21.5568 16.388 21.3615L16.638 21.1113C16.8573 20.8934 17.2118 20.8934 17.4312 21.1113C17.6503 21.3298 17.6507 21.6845 17.4322 21.9037C17.432 21.9039 17.4316 21.9043 17.4312 21.9047L17.1812 22.1547C16.9859 22.3499 16.9859 22.6666 17.1812 22.8619L23.1477 28.8284C24.717 30.412 27.2729 30.4236 28.8565 28.8543C30.44 27.285 30.4516 24.7289 28.8823 23.1454C28.8738 23.1368 28.8652 23.1281 28.8565 23.1195L22.8901 17.1532C22.6948 16.9579 22.3781 16.9579 22.1829 17.1532L21.9329 17.4032C21.7134 17.6213 21.359 17.6213 21.1395 17.4032C20.9206 17.1847 20.92 16.8299 21.1385 16.611C21.1389 16.6106 21.1393 16.6104 21.1395 16.61L21.3897 16.3598C21.585 16.1645 21.585 15.8479 21.3897 15.6526L20.2428 14.5057L22.8652 11.8834C23.2508 11.963 23.6433 12.0038 24.0369 12.005ZM26.0021 29.0106C25.6387 29.01 25.2785 28.9444 24.9384 28.8166L28.8446 24.9102C29.4341 26.4782 28.6409 28.2271 27.0729 28.8166C26.7307 28.9452 26.3679 29.0111 26.0021 29.0106ZM20.3358 16.0112C19.7819 16.6719 19.8688 17.6567 20.5294 18.2104C21.1101 18.697 21.9564 18.6966 22.5364 18.2089L28.1494 23.8269C28.2103 23.888 28.2673 23.9524 28.3224 24.0178L24.046 28.2942C23.9804 28.2393 23.916 28.1823 23.8549 28.1212L18.2375 22.5034C18.7914 21.8428 18.7046 20.858 18.0439 20.3043C17.4633 19.8175 16.6168 19.8181 16.0368 20.3056L15.2366 19.5054L19.5354 15.2129L20.3358 16.0112ZM22.3555 10.9807L11.0092 22.3248C10.8847 22.4491 10.8347 22.6296 10.8771 22.8001C11.5633 25.4949 9.93492 28.2358 7.23994 28.9218C4.54517 29.608 1.80431 27.9796 1.11811 25.2846C0.432126 22.5899 2.06047 19.849 4.75545 19.1628C5.57065 18.9554 6.42474 18.9554 7.23994 19.1628C7.41051 19.2046 7.59054 19.1546 7.71523 19.0309L19.0589 7.6866C19.1832 7.56232 19.2332 7.38187 19.1904 7.21151C18.5089 4.54821 20.1155 1.83677 22.7788 1.15511C23.282 1.02651 23.8026 0.977127 24.3211 1.00943L21.6827 3.64886C21.5487 3.7826 21.5018 3.98074 21.5617 4.16037L22.5619 7.16151C22.6119 7.31068 22.7292 7.42796 22.8785 7.47755L25.8797 8.47793C26.0591 8.53781 26.2572 8.4911 26.3912 8.35736L29.0296 5.71896C29.0356 5.81443 29.0386 5.90887 29.0386 6.0029C29.0526 8.75117 26.8362 10.9904 24.088 11.0046C23.6631 11.0067 23.2396 10.9544 22.8281 10.8491C22.6576 10.8065 22.4771 10.8563 22.3528 10.9805H22.3555V10.9807Z" fill="black" stroke="black" stroke-width="0.999036"/>
<path d="M25.8913 25.1556L25.1839 25.863L20.1824 20.8615L20.8896 20.1541L25.8913 25.1556Z" fill="black" stroke="black" stroke-width="0.999036"/>
</g>
<defs>
<clipPath id="clip0">
</clipPath>
</defs>
</svg>
