<svg width="48" height="48" viewBox="0 0 48 48" fill="none" xmlns="http://www.w3.org/2000/svg">
<g clip-path="url(#clip0)">
<path d="M4 19.308C3.46957 19.308 2.96086 19.5187 2.58579 19.8938C2.21071 20.2688 2 20.7776 2 21.308V45.642C2 46.1724 2.21071 46.6811 2.58579 47.0562C2.96086 47.4313 3.46957 47.642 4 47.642C4.53043 47.642 5.03914 47.4313 5.41421 47.0562C5.78929 46.6811 6 46.1724 6 45.642V21.308C6 20.7776 5.78929 20.2688 5.41421 19.8938C5.03914 19.5187 4.53043 19.308 4 19.308Z" fill="#CC338B"/>
<path d="M44 18.642C43.4696 18.642 42.9609 18.8527 42.5858 19.2278C42.2107 19.6029 42 20.1116 42 20.642V45.642C42 46.1725 42.2107 46.6812 42.5858 47.0562C42.9609 47.4313 43.4696 47.642 44 47.642C44.5304 47.642 45.0391 47.4313 45.4142 47.0562C45.7893 46.6812 46 46.1725 46 45.642V20.642C46 20.1116 45.7893 19.6029 45.4142 19.2278C45.0391 18.8527 44.5304 18.642 44 18.642Z" fill="#CC338B"/>
<path d="M30 21.642H18C17.4477 21.642 17 22.0897 17 22.642V32.642C17 33.1943 17.4477 33.642 18 33.642H30C30.5523 33.642 31 33.1943 31 32.642V22.642C31 22.0897 30.5523 21.642 30 21.642Z" fill="#CC338B"/>
<path d="M38 35.642H26C25.4477 35.642 25 36.0897 25 36.642V46.642C25 47.1943 25.4477 47.642 26 47.642H38C38.5523 47.642 39 47.1943 39 46.642V36.642C39 36.0897 38.5523 35.642 38 35.642Z" fill="#CC338B"/>
<path d="M22 35.642H10C9.44772 35.642 9 36.0897 9 36.642V46.642C9 47.1943 9.44772 47.642 10 47.642H22C22.5523 47.642 23 47.1943 23 46.642V36.642C23 36.0897 22.5523 35.642 22 35.642Z" fill="#CC338B"/>
<path d="M47.2536 7.54001L25.4196 -0.247991C25.2061 -0.324237 24.9734 -0.327753 24.7576 -0.257991L0.77162 7.55401C0.542239 7.63569 0.344312 7.78736 0.20579 7.98761C0.0672679 8.18786 -0.0048503 8.42656 -0.000380183 8.67001V15.47C-0.010095 15.7691 0.0992047 16.0598 0.303544 16.2784C0.507883 16.497 0.790578 16.6256 1.08962 16.636H46.9076C47.2059 16.6261 47.4882 16.4985 47.6928 16.2812C47.8974 16.0638 48.0077 15.7744 47.9996 15.476V8.64801C48.0043 8.40902 47.9352 8.17439 47.8017 7.97611C47.6682 7.77782 47.4768 7.62554 47.2536 7.54001Z" fill="#CC338B"/>
</g>
<defs>
<clipPath id="clip0">
<rect width="48" height="48" fill="white"/>
</clipPath>
</defs>
</svg>
