<svg width="30" height="30" viewBox="0 0 30 30" fill="none" xmlns="http://www.w3.org/2000/svg">
<g clip-path="url(#clip0)">
<path d="M18.3254 17.6676C14.7567 14.8331 11.6704 17.6648 11.6384 17.6932L12.2811 18.3762C12.3809 18.281 14.8052 16.0654 17.7413 18.4018L18.3254 17.6676Z" fill="black" stroke="black"/>
<path d="M19.2676 16.3245L19.8517 15.5902C14.6597 11.4667 10.1791 15.5737 10.1333 15.6159L10.7751 16.2997C10.9335 16.1505 14.7229 12.71 19.2676 16.3245Z" fill="black" stroke="black"/>
<path d="M20.9666 14.2719L21.5507 13.5376C14.5487 7.97486 8.51081 13.5074 8.44946 13.5633L9.09214 14.2462C9.31279 14.0375 14.5954 9.20719 20.9666 14.2719Z" fill="black" stroke="black"/>
<path d="M14.9998 25.6001C16.2103 25.6001 17.1915 24.6025 17.1915 23.3719C17.1915 22.1413 16.2103 21.1437 14.9998 21.1437C13.7894 21.1437 12.8081 22.1413 12.8081 23.3719C12.8081 24.6025 13.7894 25.6001 14.9998 25.6001Z" fill="black" stroke="black"/>
<path d="M15.0004 26.1519C12.91 26.1519 11.2153 27.8747 11.2153 30H18.7856C18.7855 27.8747 17.0909 26.1519 15.0004 26.1519Z" fill="black" stroke="black"/>
<path d="M3.78522 4.45641C4.99567 4.45641 5.97693 3.45881 5.97693 2.2282C5.97693 0.997601 4.99567 0 3.78522 0C2.57477 0 1.59351 0.997601 1.59351 2.2282C1.59351 3.45881 2.57477 4.45641 3.78522 4.45641Z" fill="black" stroke="black"/>
<path d="M0 8.85632H7.57022C7.57022 6.73104 5.87559 5.00818 3.78514 5.00818C1.69463 5.00818 0 6.73104 0 8.85632Z" fill="black" stroke="black"/>
<path d="M26.2152 4.45641C27.4256 4.45641 28.4069 3.45881 28.4069 2.2282C28.4069 0.997601 27.4256 0 26.2152 0C25.0047 0 24.0234 0.997601 24.0234 2.2282C24.0234 3.45881 25.0047 4.45641 26.2152 4.45641Z" fill="black" stroke="black"/>
<path d="M26.2148 5.00818C24.1243 5.00818 22.4297 6.73104 22.4297 8.85632H29.9999C29.9999 6.73104 28.3052 5.00818 26.2148 5.00818Z" fill="black" stroke="black"/>
</g>
<defs>
<clipPath id="clip0">
</clipPath>
</defs>
</svg>
