<svg width="30" height="30" viewBox="0 0 30 30" fill="none" xmlns="http://www.w3.org/2000/svg">
<g clip-path="url(#clip0)">
<path d="M29.0617 14.063H17.187C16.6695 14.063 16.2495 13.643 16.2495 13.1255C16.2495 12.608 16.6695 12.188 17.187 12.188H29.0617C29.5792 12.188 29.9992 12.608 29.9992 13.1255C29.9992 13.643 29.5792 14.063 29.0617 14.063Z" fill="black"/>
<path d="M24.3745 18.7504C24.1344 18.7504 23.8945 18.659 23.7119 18.4755C23.3457 18.109 23.3457 17.5153 23.7119 17.1491L27.7369 13.1244L23.7119 9.09938C23.3457 8.73318 23.3457 8.13947 23.7119 7.77327C24.0783 7.40684 24.672 7.40684 25.0382 7.77327L29.7256 12.4606C30.0918 12.8268 30.0918 13.4205 29.7256 13.7867L25.0382 18.4741C24.8545 18.659 24.6146 18.7504 24.3745 18.7504Z" fill="black"/>
<path d="M9.99976 29.9997C9.73221 29.9997 9.47839 29.9622 9.22479 29.8834L1.70237 27.3773C0.678842 27.0198 0 26.066 0 24.9999V2.50065C0 1.12191 1.12126 0.000648499 2.5 0.000648499C2.76732 0.000648499 3.02115 0.038184 3.27497 0.116917L10.7972 2.62309C11.8209 2.9806 12.4995 3.93432 12.4995 5.00042V27.4997C12.4995 28.8785 11.3785 29.9997 9.99976 29.9997ZM2.5 1.87559C2.15623 1.87559 1.87494 2.15688 1.87494 2.50065V24.9999C1.87494 25.2661 2.05369 25.5135 2.30866 25.6023L9.79584 28.0973C9.84962 28.1147 9.91966 28.1248 9.99976 28.1248C10.3435 28.1248 10.6246 27.8435 10.6246 27.4997V5.00042C10.6246 4.73423 10.4458 4.48682 10.1909 4.39802L2.7037 1.90305C2.64991 1.88566 2.57988 1.87559 2.5 1.87559Z" fill="black"/>
<path d="M19.062 10.0007C18.5446 10.0007 18.1246 9.5807 18.1246 9.06322V3.43839C18.1246 2.57714 17.4235 1.87586 16.5623 1.87586H2.50021C1.98273 1.87586 1.56274 1.45588 1.56274 0.938394C1.56274 0.420908 1.98273 0.000923157 2.50021 0.000923157H16.5623C18.4585 0.000923157 19.9995 1.54217 19.9995 3.43839V9.06322C19.9995 9.5807 19.5795 10.0007 19.062 10.0007Z" fill="black"/>
<path d="M16.5622 26.2501H11.5622C11.0447 26.2501 10.6248 25.8301 10.6248 25.3126C10.6248 24.7951 11.0447 24.3751 11.5622 24.3751H16.5622C17.4235 24.3751 18.1245 23.6739 18.1245 22.8126V17.1878C18.1245 16.6703 18.5445 16.2503 19.062 16.2503C19.5795 16.2503 19.9995 16.6703 19.9995 17.1878V22.8126C19.9995 24.7088 18.4585 26.2501 16.5622 26.2501Z" fill="black"/>
</g>
<defs>
<clipPath id="clip0">
</clipPath>
</defs>
</svg>
