<svg width="48" height="48" viewBox="0 0 48 48" fill="none" xmlns="http://www.w3.org/2000/svg">
<g clip-path="url(#clip0)">
<path d="M38.1564 19.062C37.8875 19.0301 37.6148 19.0576 37.3577 19.1427C37.1006 19.2277 36.8653 19.3681 36.6684 19.554C36.4578 19.7434 36.2894 19.975 36.1743 20.2338C36.0592 20.4926 36 20.7728 36.0004 21.056V28C36.0004 28.2652 35.895 28.5196 35.7075 28.7071C35.5199 28.8947 35.2656 29 35.0004 29H26.0604C25.78 29 25.5028 29.0593 25.2471 29.1741C24.9913 29.2889 24.7627 29.4565 24.5764 29.666C24.385 29.8825 24.2413 30.1368 24.1548 30.4125C24.0683 30.6882 24.0409 30.979 24.0744 31.266C24.3849 33.9461 25.6695 36.4186 27.684 38.2133C29.6985 40.008 32.3024 40.9998 35.0004 41H36.5284C39.3095 41.0363 42.0075 40.0516 44.1114 38.2323C46.2153 36.413 47.579 33.8853 47.9444 31.128C48.233 28.2326 47.3665 25.3404 45.5334 23.0807C43.7003 20.821 41.049 19.3767 38.1564 19.062Z" fill="#CC338B"/>
<path d="M29 48C30.6569 48 32 46.6569 32 45C32 43.3431 30.6569 42 29 42C27.3431 42 26 43.3431 26 45C26 46.6569 27.3431 48 29 48Z" fill="#CC338B"/>
<path d="M43 48C44.6569 48 46 46.6569 46 45C46 43.3431 44.6569 42 43 42C41.3431 42 40 43.3431 40 45C40 46.6569 41.3431 48 43 48Z" fill="#CC338B"/>
<path d="M21.0002 38C21.15 38 21.298 37.9664 21.4331 37.9015C21.5681 37.8366 21.6869 37.7423 21.7806 37.6253C21.8743 37.5084 21.9405 37.3719 21.9744 37.2259C22.0082 37.08 22.0089 36.9283 21.9762 36.782L18.8202 22.756C18.4031 20.8767 17.3223 19.2108 15.7762 18.064C15.6698 17.9864 15.5491 17.9305 15.4211 17.8996C15.293 17.8688 15.1602 17.8635 15.0301 17.8841C14.9 17.9047 14.7752 17.9509 14.663 18.0198C14.5508 18.0888 14.4533 18.1793 14.3762 18.286L11.4002 22.43C11.3539 22.4948 11.2929 22.5477 11.2221 22.5841C11.1513 22.6206 11.0728 22.6396 10.9932 22.6396C10.9136 22.6396 10.8351 22.6206 10.7643 22.5841C10.6935 22.5477 10.6324 22.4948 10.5862 22.43L7.63219 18.286C7.55504 18.1793 7.45756 18.0888 7.34535 18.0198C7.23314 17.9509 7.10841 17.9047 6.97832 17.8841C6.84824 17.8635 6.71535 17.8688 6.58731 17.8996C6.45927 17.9305 6.33859 17.9864 6.23219 18.064C4.68307 19.2095 3.59935 20.8755 3.18019 22.756L0.0241937 36.782C-0.00797465 36.9287 -0.00669982 37.0807 0.0279235 37.2268C0.0625468 37.3729 0.12963 37.5094 0.224194 37.626C0.317494 37.7422 0.435595 37.8361 0.569858 37.9009C0.704121 37.9656 0.851151 37.9994 1.00019 38H4.20019C4.44896 37.9988 4.68926 38.0903 4.87417 38.2567C5.05908 38.4231 5.17532 38.6525 5.20019 38.9L6.00019 47.1C6.02507 47.3475 6.14131 47.5769 6.32622 47.7433C6.51113 47.9097 6.75143 48.0013 7.00019 48H15.0002C15.249 48.0013 15.4893 47.9097 15.6742 47.7433C15.8591 47.5769 15.9753 47.3475 16.0002 47.1L16.8202 38.9C16.8447 38.6559 16.9581 38.4293 17.1388 38.2634C17.3195 38.0974 17.5549 38.0037 17.8002 38H21.0002Z" fill="#CC338B"/>
<path d="M20.7741 17.542C20.9765 17.3746 21.1439 17.1689 21.2668 16.9368C21.3897 16.7047 21.4656 16.4506 21.4903 16.1891C21.515 15.9276 21.488 15.6638 21.4107 15.4128C21.3335 15.1617 21.2076 14.9284 21.0401 14.726C20.0836 13.6234 19.5393 12.2231 19.5001 10.764V8.5C19.5001 6.24566 18.6046 4.08365 17.0105 2.48959C15.4165 0.895533 13.2544 0 11.0001 0C8.74577 0 6.58376 0.895533 4.9897 2.48959C3.39564 4.08365 2.50011 6.24566 2.50011 8.5V10.764C2.46121 12.2235 1.91609 13.6242 0.958106 14.726C0.619955 15.1347 0.458008 15.661 0.507893 16.1891C0.557778 16.7172 0.815407 17.2038 1.22411 17.542C1.6328 17.8802 2.15909 18.0421 2.6872 17.9922C3.2153 17.9423 3.70195 17.6847 4.04011 17.276C4.49377 16.7285 4.8955 16.14 5.24011 15.518C5.27464 15.4559 5.32196 15.4018 5.37894 15.3594C5.43592 15.317 5.50126 15.2871 5.57064 15.2718C5.64002 15.2565 5.71186 15.2561 5.78141 15.2706C5.85097 15.2851 5.91665 15.3142 5.97411 15.356C7.4314 16.4242 9.19123 17.0001 10.9981 17.0001C12.805 17.0001 14.5648 16.4242 16.0221 15.356C16.0797 15.3145 16.1454 15.2857 16.2148 15.2713C16.2843 15.257 16.3561 15.2575 16.4254 15.2728C16.4946 15.2881 16.5599 15.3178 16.6169 15.3601C16.6739 15.4023 16.7213 15.4561 16.7561 15.518C17.1007 16.14 17.5024 16.7285 17.9561 17.276C18.1236 17.4787 18.3293 17.6463 18.5616 17.7694C18.7939 17.8925 19.0482 17.9685 19.31 17.9932C19.5717 18.0179 19.8357 17.9908 20.087 17.9134C20.3382 17.836 20.5717 17.7098 20.7741 17.542ZM15.0541 8.522C15.1786 8.54636 15.2892 8.61714 15.3635 8.72001C15.4378 8.82288 15.4702 8.95014 15.4541 9.076C15.3159 10.1618 14.7865 11.16 13.9651 11.8835C13.1437 12.6069 12.0867 13.0061 10.9921 13.0061C9.89753 13.0061 8.84051 12.6069 8.01911 11.8835C7.19772 11.16 6.66831 10.1618 6.53011 9.076C6.51404 8.95014 6.54643 8.82288 6.6207 8.72001C6.69498 8.61714 6.80558 8.54636 6.93011 8.522C7.55886 8.41934 8.17056 8.23092 8.74811 7.962C9.47655 7.6256 10.1122 7.11696 10.6001 6.48C10.6469 6.41826 10.7074 6.3682 10.7768 6.33373C10.8462 6.29926 10.9226 6.28132 11.0001 6.28132C11.0776 6.28132 11.154 6.29926 11.2234 6.33373C11.2928 6.3682 11.3533 6.41826 11.4001 6.48C11.882 7.11402 12.5098 7.6224 13.2301 7.962C13.8097 8.23104 14.4234 8.41946 15.0541 8.522Z" fill="#CC338B"/>
</g>
<defs>
<clipPath id="clip0">
<rect width="48" height="48" fill="white"/>
</clipPath>
</defs>
</svg>
