<svg width="30" height="25" viewBox="0 0 30 25" fill="none" xmlns="http://www.w3.org/2000/svg">
<path d="M26.414 0H3.58608C1.60864 0 0 2.00394 0 4.46739V20.5326C0 22.9959 1.60864 25 3.58608 25H26.4139C28.3912 25 30 22.9959 30 20.5326V4.46739C30.0001 2.00394 28.3913 0 26.414 0ZM28.0158 20.5325C28.0158 21.6329 27.2972 22.528 26.414 22.528H3.58608C2.70286 22.528 1.98417 21.6329 1.98417 20.5325V9.76658H28.0157L28.0158 20.5325ZM28.0158 6.2401L1.98423 6.24246V4.46731C1.98423 3.36697 2.70292 2.47175 3.58615 2.47175H26.414C27.2972 2.47175 28.0158 3.36697 28.0158 4.46731V6.2401Z" fill="black"/>
<path d="M4.44654 20.2355H9.87849C10.073 20.2355 10.2308 20.0391 10.2308 19.7968V18.4617C10.2308 18.2194 10.073 18.0229 9.87849 18.0229H4.44654C4.25205 18.0229 4.09424 18.2194 4.09424 18.4617V19.7968C4.09417 20.0391 4.25198 20.2355 4.44654 20.2355Z" fill="black"/>
<path d="M20.3864 14.0602C20.9509 14.0602 21.4711 14.2958 21.8879 14.6918C22.3046 14.2959 22.8247 14.0602 23.3893 14.0602C24.7583 14.0602 25.868 15.4427 25.868 17.148C25.868 18.8533 24.7582 20.2356 23.3893 20.2356C22.8248 20.2356 22.3046 20.0002 21.8879 19.6041C21.4711 20.0001 20.951 20.2356 20.3864 20.2356C19.0174 20.2356 17.9077 18.8533 17.9077 17.148C17.9077 15.4427 19.0175 14.0602 20.3864 14.0602Z" fill="black"/>
</svg>
