<svg width="48" height="48" viewBox="0 0 48 48" fill="none" xmlns="http://www.w3.org/2000/svg">
<path d="M23.9996 0C10.7451 0 0 10.7455 0 23.9999C0 37.2541 10.7451 48.0003 23.9996 48.0003C37.2541 48.0003 48 37.2541 48 23.9999C48 10.7451 37.2541 0 23.9996 0ZM24.0727 35.3227V35.3223H23.9262H13.6745C13.6745 27.8253 20.2589 27.827 21.72 25.8667L21.8872 24.9727C19.8344 23.9324 18.3853 21.4242 18.3853 18.4907C18.3853 14.626 20.8992 11.4925 23.9996 11.4925C27.1 11.4925 29.6139 14.626 29.6139 18.4907C29.6139 21.3992 28.1905 23.8918 26.1651 24.9486L26.3555 25.9644C27.9585 27.8297 34.3239 27.9513 34.3239 35.3227H24.0727Z" fill="white"/>
</svg>
