<svg width="48" height="48" viewBox="0 0 48 48" fill="none" xmlns="http://www.w3.org/2000/svg">
<path d="M45.9683 1.27595C46.0128 1.08934 46.0026 0.893879 45.939 0.71288C45.8755 0.53188 45.7612 0.372981 45.6098 0.255134C45.4585 0.137286 45.2764 0.0654639 45.0854 0.0482324C44.8943 0.031001 44.7023 0.0690878 44.5323 0.15795L3.5663 21.638C3.11303 21.8769 2.73055 22.2308 2.45723 22.6642C2.18392 23.0976 2.02938 23.5953 2.00912 24.1073C1.98886 24.6193 2.10359 25.1276 2.3418 25.5813C2.58001 26.0349 2.93332 26.4179 3.3663 26.6919L12.4863 32.456C12.578 32.5142 12.6861 32.541 12.7943 32.5323C12.9026 32.5237 13.0051 32.48 13.0863 32.408L37.4003 10.672C37.4928 10.5843 37.6154 10.5354 37.7428 10.5354C37.8703 10.5354 37.9928 10.5842 38.0854 10.6719C38.1779 10.7595 38.2333 10.8793 38.2401 11.0066C38.247 11.1338 38.2048 11.2589 38.1223 11.356L18.6923 35.728C18.6486 35.7829 18.6169 35.8464 18.5994 35.9144C18.5818 35.9824 18.5788 36.0534 18.5905 36.1226C18.6022 36.1919 18.6283 36.2579 18.6673 36.3163C18.7062 36.3748 18.7569 36.4244 18.8163 36.462L31.6803 44.5999C32.0718 44.8466 32.5165 44.9963 32.9775 45.0366C33.4384 45.0769 33.9024 45.0066 34.3307 44.8315C34.7591 44.6565 35.1394 44.3817 35.4403 44.0301C35.7411 43.6785 35.9536 43.2602 36.0603 42.81L45.9683 1.27595Z" fill="white"/>
<path d="M15.77 38.364C15.6942 38.3162 15.6071 38.2895 15.5175 38.2867C15.428 38.284 15.3393 38.3052 15.2607 38.3483C15.1822 38.3913 15.1165 38.4546 15.0707 38.5316C15.0249 38.6086 15.0004 38.6964 15 38.786C15 40.898 15 45.956 15 45.956C15.0001 46.3515 15.1174 46.7381 15.3372 47.0669C15.557 47.3958 15.8693 47.652 16.2347 47.8034C16.6001 47.9547 17.0022 47.9943 17.3901 47.9172C17.778 47.8401 18.1343 47.6496 18.414 47.37L22.45 43.336C22.5027 43.2828 22.5428 43.2186 22.5674 43.1479C22.592 43.0772 22.6005 43.0019 22.5923 42.9275C22.584 42.8531 22.5592 42.7815 22.5197 42.7179C22.4802 42.6543 22.427 42.6004 22.364 42.56L15.77 38.364Z" fill="white"/>
</svg>
