<svg width="30" height="30" viewBox="0 0 30 30" fill="none" xmlns="http://www.w3.org/2000/svg">
<g clip-path="url(#clip0)">
<path d="M28.4556 11.6667H25.6489C25.1978 11.6667 24.8261 11.4183 24.6533 11.0017C24.4806 10.585 24.5683 10.1461 24.8867 9.82722L26.8711 7.84333C27.1628 7.55167 27.3233 7.16333 27.3233 6.75111C27.3233 6.33833 27.1628 5.95056 26.8711 5.65833L24.3417 3.12889C23.7583 2.54556 22.7411 2.54444 22.1567 3.12889L20.1728 5.11278C19.8539 5.43111 19.4139 5.52 18.9983 5.34667C18.5817 5.17389 18.3333 4.80222 18.3333 4.35111V1.54444C18.3333 0.692778 17.6406 0 16.7889 0H13.2111C12.3594 0 11.6667 0.692778 11.6667 1.54444V4.35111C11.6667 4.80222 11.4183 5.17389 11.0017 5.34667C10.5861 5.52056 10.1461 5.43111 9.82722 5.11278L7.84333 3.12889C7.25889 2.54444 6.24167 2.54556 5.65833 3.12889L3.12889 5.65833C2.83722 5.95 2.67667 6.33833 2.67667 6.75111C2.67667 7.16333 2.83722 7.55111 3.12889 7.84333L5.11333 9.82722C5.43167 10.1461 5.51889 10.585 5.34667 11.0017C5.17444 11.4183 4.80222 11.6667 4.35111 11.6667H1.54444C0.692778 11.6667 0 12.3594 0 13.2111V16.7883C0 17.6406 0.692778 18.3333 1.54444 18.3333H4.35111C4.80222 18.3333 5.17389 18.5817 5.34667 18.9983C5.51944 19.415 5.43167 19.8539 5.11333 20.1728L3.12889 22.1567C2.83722 22.4483 2.67667 22.8367 2.67667 23.2489C2.67667 23.6617 2.83722 24.0494 3.12889 24.3417L5.65833 26.8711C6.24222 27.455 7.25889 27.4561 7.84333 26.8711L9.82722 24.8867C10.1461 24.5683 10.5844 24.4806 11.0017 24.6533C11.4183 24.8261 11.6667 25.1978 11.6667 25.6489V28.4556C11.6667 29.3072 12.3594 30 13.2111 30H16.7883C17.64 30 18.3328 29.3072 18.3328 28.4556V25.6489C18.3328 25.1978 18.5811 24.8261 18.9978 24.6533C19.415 24.48 19.8533 24.5683 20.1722 24.8867L22.1561 26.8711C22.7406 27.4556 23.7578 27.4544 24.3411 26.8711L26.8706 24.3417C27.1622 24.05 27.3228 23.6617 27.3228 23.2489C27.3228 22.8367 27.1622 22.4489 26.8706 22.1567L24.8861 20.1728C24.5678 19.8539 24.4806 19.415 24.6528 18.9983C24.825 18.5817 25.1978 18.3333 25.6489 18.3333H28.4556C29.3072 18.3333 30 17.6406 30 16.7889V13.2111C30 12.3594 29.3072 11.6667 28.4556 11.6667ZM28.8889 16.7889C28.8889 17.0278 28.6944 17.2222 28.4556 17.2222H25.6489C24.7467 17.2222 23.9717 17.74 23.6267 18.5733C23.2811 19.4067 23.4628 20.3211 24.1011 20.9589L26.0856 22.9428C26.255 23.1122 26.255 23.3872 26.0856 23.5561L23.5561 26.0856C23.3872 26.2544 23.1122 26.2556 22.9428 26.0856L20.9589 24.1011C20.3206 23.4628 19.4067 23.2822 18.5733 23.6267C17.74 23.9717 17.2222 24.7467 17.2222 25.6489V28.4556C17.2222 28.6944 17.0278 28.8889 16.7889 28.8889H13.2111C12.9722 28.8889 12.7778 28.6944 12.7778 28.4556V25.6489C12.7778 24.7467 12.26 23.9717 11.4267 23.6267C11.1472 23.5106 10.8594 23.4539 10.575 23.4539C10.0117 23.4539 9.46556 23.6761 9.04111 24.1006L7.05722 26.085C6.88722 26.255 6.61222 26.2539 6.44389 26.085L3.91444 23.5556C3.745 23.3861 3.745 23.1111 3.91444 22.9422L5.89889 20.9583C6.53667 20.3206 6.71889 19.4061 6.37333 18.5728C6.02833 17.74 5.25333 17.2222 4.35111 17.2222H1.54444C1.30556 17.2222 1.11111 17.0278 1.11111 16.7889V13.2111C1.11111 12.9722 1.30556 12.7778 1.54444 12.7778H4.35111C5.25333 12.7778 6.02833 12.26 6.37333 11.4267C6.71889 10.5933 6.53722 9.67889 5.89889 9.04111L3.91444 7.05722C3.745 6.88778 3.745 6.61278 3.91444 6.44389L6.44389 3.91444C6.61278 3.745 6.88778 3.745 7.05722 3.91444L9.04111 5.89833C9.67833 6.53556 10.5922 6.71833 11.4267 6.37278C12.26 6.02833 12.7778 5.25333 12.7778 4.35111V1.54444C12.7778 1.30556 12.9722 1.11111 13.2111 1.11111H16.7883C17.0278 1.11111 17.2222 1.30556 17.2222 1.54444V4.35111C17.2222 5.25333 17.74 6.02833 18.5733 6.37333C19.4078 6.71889 20.3211 6.53667 20.9589 5.89889L22.9428 3.915C23.1128 3.74556 23.3878 3.74556 23.5561 3.915L26.0856 6.44445C26.255 6.61389 26.255 6.88889 26.0856 7.05778L24.1011 9.04167C23.4633 9.67944 23.2811 10.5939 23.6267 11.4272C23.9717 12.2606 24.7467 12.7783 25.6489 12.7783H28.4556C28.6944 12.7778 28.8889 12.9722 28.8889 13.2111V16.7889Z" fill="black" stroke="black"/>
<path d="M15 10C12.2428 10 10 12.2428 10 15C10 17.7572 12.2428 20 15 20C17.7572 20 20 17.7572 20 15C20 12.2428 17.7572 10 15 10ZM15 18.8889C12.8561 18.8889 11.1111 17.1439 11.1111 15C11.1111 12.8561 12.8561 11.1111 15 11.1111C17.1439 11.1111 18.8889 12.8561 18.8889 15C18.8889 17.1439 17.1439 18.8889 15 18.8889Z" fill="black" stroke="black"/>
</g>
<defs>
<clipPath id="clip0">
</clipPath>
</defs>
</svg>
